<svg width="1200" height="1600" viewBox="0 0 1200 1600" fill="none" xmlns="http://www.w3.org/2000/svg">
  <defs>
    <linearGradient id="bg" x1="160" y1="110" x2="1120" y2="1460" gradientUnits="userSpaceOnUse">
      <stop stop-color="#2A1E31"/>
      <stop offset="0.52" stop-color="#1A2029"/>
      <stop offset="1" stop-color="#141418"/>
    </linearGradient>
    <radialGradient id="warm" cx="0" cy="0" r="1" gradientUnits="userSpaceOnUse" gradientTransform="translate(428 282) rotate(55) scale(720 530)">
      <stop stop-color="#C9A477" stop-opacity="0.56"/>
      <stop offset="1" stop-color="#C9A477" stop-opacity="0"/>
    </radialGradient>
    <radialGradient id="cold" cx="0" cy="0" r="1" gradientUnits="userSpaceOnUse" gradientTransform="translate(900 770) rotate(132) scale(640 760)">
      <stop stop-color="#7D8FA3" stop-opacity="0.38"/>
      <stop offset="1" stop-color="#7D8FA3" stop-opacity="0"/>
    </radialGradient>
    <linearGradient id="bronze" x1="398" y1="220" x2="782" y2="1360" gradientUnits="userSpaceOnUse">
      <stop stop-color="#D4B288"/>
      <stop offset="0.4" stop-color="#8F6A43"/>
      <stop offset="0.8" stop-color="#5D452F"/>
      <stop offset="1" stop-color="#332B25"/>
    </linearGradient>
    <linearGradient id="cloth" x1="500" y1="820" x2="700" y2="1340" gradientUnits="userSpaceOnUse">
      <stop stop-color="#6B43A3" stop-opacity="0.76"/>
      <stop offset="1" stop-color="#2E184D" stop-opacity="0.72"/>
    </linearGradient>
    <filter id="soft" x="0" y="0" width="1200" height="1600" filterUnits="userSpaceOnUse">
      <feGaussianBlur stdDeviation="0.35"/>
    </filter>
  </defs>

  <rect width="1200" height="1600" fill="url(#bg)"/>
  <rect width="1200" height="1600" fill="url(#warm)"/>
  <rect width="1200" height="1600" fill="url(#cold)"/>

  <g opacity="0.2" filter="url(#soft)">
    <path d="M80 1230C220 990 302 876 560 812" stroke="#C9A477" stroke-width="2"/>
    <path d="M220 1328C396 1036 464 964 760 876" stroke="#C9A477" stroke-width="2"/>
  </g>

  <g>
    <path d="M502 1260C470 1126 474 1042 488 910C496 834 504 756 544 702C570 668 604 652 642 646C696 638 758 656 788 690C826 734 838 794 844 882C852 1004 830 1122 794 1250C752 1386 562 1386 502 1260Z" fill="url(#bronze)"/>
    <path d="M604 674C558 704 532 756 520 822C508 888 516 952 532 1012" stroke="#B58E63" stroke-width="10" stroke-linecap="round" opacity="0.68"/>
    <ellipse cx="648" cy="524" rx="144" ry="174" fill="url(#bronze)"/>
    <path d="M536 520C550 460 586 416 646 404C706 416 748 462 762 520C752 612 718 658 646 676C574 658 544 612 536 520Z" fill="#715236" opacity="0.6"/>

    <path d="M576 442C608 424 670 424 708 444" stroke="#E6D0AE" stroke-width="10" stroke-linecap="round" opacity="0.6"/>
    <rect x="546" y="450" width="206" height="30" rx="15" fill="#2E184D" opacity="0.68"/>

    <path d="M486 744L334 322" stroke="url(#bronze)" stroke-width="40" stroke-linecap="round"/>
    <circle cx="334" cy="322" r="30" fill="#C9A477"/>
    <path d="M334 352L232 494" stroke="#866344" stroke-width="12"/>
    <path d="M334 352L434 486" stroke="#866344" stroke-width="12"/>
    <ellipse cx="230" cy="514" rx="74" ry="28" fill="#6C4C31"/>
    <ellipse cx="434" cy="504" rx="74" ry="28" fill="#6C4C31"/>

    <path d="M428 980C566 914 706 914 846 980L806 1122C720 1168 580 1168 468 1124L428 980Z" fill="url(#cloth)"/>
  </g>

  <g opacity="0.5">
    <circle cx="1010" cy="260" r="58" fill="#C9A477"/>
    <circle cx="1010" cy="260" r="50" fill="#DCC2A3"/>
  </g>
</svg>
